HIERARCHY
ROOT Hips
{
	OFFSET 0.000000 88.474243 0.000000
	CHANNELS 6 Xposition Yposition Zposition Zrotation Yrotation Xrotation 
	JOINT Hips_Spine
	{
		OFFSET 0.000000 0.000000 0.000000
		CHANNELS 3 Zrotation Yrotation Xrotation
		JOINT Spine
		{
			OFFSET 0.005100 8.711998 -0.691000
			CHANNELS 3 Zrotation Yrotation Xrotation
			JOINT Spine1
			{
				OFFSET -0.009200 8.660301 -1.275000
				CHANNELS 3 Zrotation Yrotation Xrotation
				JOINT Spine2
				{
					OFFSET 0.006300 9.852501 -1.857000
					CHANNELS 3 Zrotation Yrotation Xrotation
					JOINT Spine2_Neck
					{
						OFFSET 0.000000 0.000000 0.000000
						CHANNELS 3 Zrotation Yrotation Xrotation
						JOINT Neck
						{
							OFFSET 0.016300 11.420799 -0.263300
							CHANNELS 3 Zrotation Yrotation Xrotation
							End Site #name: Head
							{
								OFFSET -0.019200 9.262405 2.362500
							}
						}
					}
					JOINT Spine2_LeftShoulder
					{
						OFFSET 0.000000 0.000000 0.000000
						CHANNELS 3 Zrotation Yrotation Xrotation
						JOINT LeftShoulder
						{
							OFFSET 5.616900 6.732201 -0.345700
							CHANNELS 3 Zrotation Yrotation Xrotation
							JOINT LeftArm
							{
								OFFSET 10.664888 -0.183372 -2.440700
								CHANNELS 3 Zrotation Yrotation Xrotation
								JOINT LeftForeArm
								{
									OFFSET 27.459126 0.000000 0.000000
									CHANNELS 3 Zrotation Yrotation Xrotation
									End Site #name: LeftHand
									{
										OFFSET 21.306858 0.000000 0.000000
									}
								}
							}
						}
					}
					JOINT Spine2_RightShoulder
					{
						OFFSET 0.000000 0.000000 0.000000
						CHANNELS 3 Zrotation Yrotation Xrotation
						JOINT RightShoulder
						{
							OFFSET -5.580300 6.737503 -0.344400
							CHANNELS 3 Zrotation Yrotation Xrotation
							JOINT RightArm
							{
								OFFSET -10.679335 -0.188484 -2.383900
								CHANNELS 3 Zrotation Yrotation Xrotation
								JOINT RightForeArm
								{
									OFFSET -27.503529 0.000000 0.000000
									CHANNELS 3 Zrotation Yrotation Xrotation
									End Site #name: RightHand
									{
										OFFSET -21.306808 0.000000 0.000000
									}
								}
							}
						}
					}
				}
			}
		}
	}
	JOINT Hips_LeftUpLeg
	{
		OFFSET 0.000000 0.000000 0.000000
		CHANNELS 3 Zrotation Yrotation Xrotation
		JOINT LeftUpLeg
		{
			OFFSET 6.857700 -6.739601 0.312100
			CHANNELS 3 Zrotation Yrotation Xrotation
			JOINT LeftLeg
			{
				OFFSET -0.367590 -34.731552 -4.572400
				CHANNELS 3 Zrotation Yrotation Xrotation
				End Site #name: LeftFoot
				{
					OFFSET 0.367590 -34.656704 -6.067400
				}
			}
		}
	}
	JOINT Hips_RightUpLeg
	{
		OFFSET 0.000000 0.000000 0.000000
		CHANNELS 3 Zrotation Yrotation Xrotation
		JOINT RightUpLeg
		{
			OFFSET -6.876100 -6.733299 0.301000
			CHANNELS 3 Zrotation Yrotation Xrotation
			JOINT RightLeg
			{
				OFFSET 0.347353 -34.795158 -4.515900
				CHANNELS 3 Zrotation Yrotation Xrotation
				End Site #name: RightFoot
				{
					OFFSET -0.347353 -34.589367 -6.070300
				}
			}
		}
	}
}
MOTION
Frames: 17
Frame Time: 0.041667
0.157765 0.039317 0.032358 0.567116 9.745363 -8.040308 0.000000 0.000000 0.000000 -0.638710 -0.935269 2.139370 0.499498 -0.292599 0.934894 0.000000 0.000000 0.000000 0.839777 -0.498372 0.082064 1.440440 -0.287963 -1.589586 1.124885 -0.735882 -0.079764 -15.861588 -5.951736 1.484068 -50.380557 1.952346 28.066063 0.495918 -25.605571 2.031017 0.384647 -0.156844 0.757157 17.472707 11.382151 5.332050 57.174197 -4.236287 9.242908 0.109593 45.558904 0.691667 0.000000 0.000000 -0.000000 -4.743434 12.695758 -7.200715 4.106568 7.970816 24.762930 0.000000 0.000000 0.000000 1.585480 -5.191118 -5.514749 0.241933 2.568181 2.133137 
0.494520 0.024450 0.072143 1.939430 11.829554 -9.270081 0.000000 0.000000 0.000000 -1.221014 -0.194865 -0.159580 1.155597 -0.177416 0.412276 0.000000 0.000000 0.000000 0.639961 -0.034945 -0.079827 1.204416 -1.210171 -0.871363 0.952870 -0.097549 -0.362787 -19.989707 -4.490966 0.156542 -49.396246 3.515840 26.523216 -0.710313 -27.998733 0.980600 0.611121 0.191621 0.354010 19.047569 9.865384 3.453882 60.088036 -0.663956 12.796314 -0.002981 37.523505 -0.074155 0.000000 -0.000000 -0.000000 -6.918048 12.657477 -5.489489 2.895436 8.607150 24.114962 0.000000 0.000000 0.000000 -1.604651 -5.893235 -4.251424 -0.134085 1.990062 3.821283 
0.723019 0.023911 0.036947 2.932105 12.255602 -9.349230 0.000000 0.000000 0.000000 -1.139153 0.412711 -0.750471 1.460984 0.337106 -0.122290 0.000000 0.000000 0.000000 1.121006 0.165850 -0.375606 1.279120 -0.751360 -1.907630 1.144391 0.237033 -0.616090 -23.412558 -3.613791 -0.175259 -48.347923 11.088182 20.516703 -0.784197 -27.709221 1.074024 1.017831 0.475288 0.166361 18.566395 10.204176 2.775799 60.219283 1.015629 16.247158 0.213731 32.610460 -0.271896 0.000000 -0.000000 -0.000000 -8.476367 11.848746 -5.215745 2.964119 9.295750 23.848655 0.000000 0.000000 0.000000 -3.700122 -5.734349 -4.980087 0.129505 0.272219 6.162695 
0.991418 0.012032 -0.025233 3.305117 11.831268 -9.247793 0.000000 0.000000 0.000000 -1.761155 0.774829 -0.415296 1.563412 0.434776 -0.186902 0.000000 0.000000 0.000000 1.320701 0.254995 -0.353471 1.059832 -0.815909 -1.975210 1.323528 0.413388 -0.628687 -25.754547 -4.403253 -0.627944 -48.540549 14.268750 19.101045 -0.765989 -25.897727 1.112375 1.284591 0.524135 0.176635 17.777866 10.668656 2.736252 60.717342 3.535119 16.854755 0.317728 35.114376 -0.265605 0.000000 -0.000000 -0.000000 -9.475271 11.690277 -5.067066 2.761419 9.383539 23.284453 0.000000 0.000000 0.000000 -4.901550 -5.680655 -6.242640 0.017108 -0.789563 8.730176 
1.319738 0.003105 -0.083682 3.401927 11.512739 -9.157037 0.000000 0.000000 0.000000 -2.361386 0.953705 -0.346499 1.322374 0.479027 -0.107366 0.000000 0.000000 0.000000 1.186709 0.166354 -0.366923 0.817699 -0.922296 -1.504548 1.224582 0.374009 -0.635985 -28.197148 -4.490674 -0.868950 -47.632560 14.636714 20.592330 -0.835913 -23.034196 1.251875 1.170145 0.484066 0.255982 17.282559 10.881620 2.613890 61.955572 5.202995 16.544842 0.384919 37.410483 -0.217872 0.000000 -0.000000 -0.000000 -10.192116 11.489173 -5.184471 2.560661 9.265984 23.261174 0.000000 0.000000 0.000000 -5.610349 -5.806431 -7.041282 0.287040 -0.224141 10.385348 
1.684327 -0.002435 -0.139894 3.387717 11.252716 -9.125382 0.000000 0.000000 0.000000 -2.980762 1.019765 -0.409341 0.974864 0.436826 -0.080132 0.000000 0.000000 0.000000 0.896714 -0.004170 -0.274453 0.660177 -1.056439 -1.039952 0.984138 0.211424 -0.638815 -30.082998 -3.780862 -1.002738 -45.640363 14.184304 22.464079 -0.897352 -19.487510 1.368358 0.926853 0.377620 0.347072 16.760902 11.001650 2.507764 62.771078 5.699191 15.835589 0.458864 37.854782 -0.162087 0.000000 -0.000000 -0.000000 -10.696268 11.382598 -5.364957 2.428264 9.096913 23.513156 0.000000 0.000000 0.000000 -6.016454 -5.931251 -7.427409 0.868317 1.284295 11.378126 
2.059752 -0.004292 -0.197422 3.307286 11.113482 -9.084281 0.000000 0.000000 0.000000 -3.585782 1.022621 -0.431767 0.686012 0.378143 -0.033545 0.000000 0.000000 0.000000 0.613997 -0.151061 -0.142157 0.623569 -1.172143 -0.781907 0.745661 0.123148 -0.535830 -31.468461 -3.164204 -1.088851 -43.485590 13.948498 23.618477 -0.916371 -15.542567 1.438852 0.632673 0.278101 0.427277 16.209547 11.131126 2.439887 63.424072 5.617065 15.045117 0.520352 36.616306 -0.132366 0.000000 0.000000 -0.000000 -11.085334 11.334068 -5.612094 2.340537 8.896964 23.904642 0.000000 0.000000 0.000000 -6.340039 -6.059811 -7.662324 1.463616 2.702173 12.014260 
2.418175 -0.001839 -0.255031 3.189180 11.096956 -9.012301 0.000000 0.000000 0.000000 -4.078282 1.011789 -0.418801 0.449635 0.353597 0.023818 0.000000 0.000000 0.000000 0.389633 -0.214050 -0.044450 0.582182 -1.272211 -0.673099 0.554029 0.119142 -0.423536 -32.544019 -2.770731 -1.178393 -41.697955 13.664173 23.606465 -0.902389 -12.282272 1.456394 0.326446 0.266543 0.491162 15.627507 11.161880 2.326112 64.030757 5.252375 14.438778 0.560370 34.591710 -0.131568 0.000000 0.000000 -0.000000 -11.452098 11.265817 -5.868922 2.278492 8.668774 24.267422 0.000000 0.000000 0.000000 -6.631943 -6.151222 -7.876593 1.968014 3.848908 12.427611 
2.728930 0.005377 -0.310628 3.047399 11.207471 -8.916127 0.000000 0.000000 0.000000 -4.500353 1.008019 -0.381728 0.243148 0.381504 0.039628 0.000000 0.000000 0.000000 0.206831 -0.180993 0.020086 0.507525 -1.376606 -0.620302 0.396650 0.164413 -0.390292 -33.265256 -2.415835 -1.275879 -40.781887 12.984383 23.608942 -0.890219 -9.859059 1.429618 0.056499 0.340025 0.515703 15.136271 11.092873 2.233325 64.528565 4.870199 13.776390 0.588677 32.311697 -0.152392 0.000000 0.000000 -0.000000 -11.790900 11.181200 -6.145919 2.273939 8.470268 24.638524 0.000000 0.000000 0.000000 -6.890758 -6.240866 -8.075774 2.425288 4.877623 12.757577 
2.984724 0.015975 -0.364793 2.930041 11.382550 -8.827146 0.000000 0.000000 0.000000 -5.010080 1.050250 -0.269335 0.052269 0.448739 0.011223 0.000000 0.000000 0.000000 0.046376 -0.094594 0.024443 0.429347 -1.462578 -0.606891 0.256944 0.245495 -0.420884 -33.646489 -2.089301 -1.366245 -40.460458 12.444292 23.257820 -0.881332 -8.399252 1.401558 -0.190772 0.490054 0.505349 14.782142 10.877645 2.136512 64.879920 4.615975 12.992034 0.610280 30.431316 -0.166704 0.000000 0.000000 -0.000000 -12.064560 11.107679 -6.410088 2.333967 8.356628 25.005610 0.000000 0.000000 0.000000 -7.112530 -6.364148 -8.278853 2.784199 5.751170 13.120929 
3.179940 0.028928 -0.419407 2.831966 11.515669 -8.773960 0.000000 0.000000 0.000000 -5.464612 1.104274 -0.108867 -0.123575 0.529823 -0.034985 0.000000 0.000000 0.000000 -0.096955 0.011107 0.004808 0.350803 -1.542520 -0.603854 0.124071 0.337762 -0.479453 -33.697807 -1.821905 -1.446932 -40.595381 11.881559 22.864499 -0.863655 -7.841849 1.362643 -0.422304 0.641456 0.491450 14.621556 10.562292 2.040457 65.017852 4.562974 12.308872 0.624767 29.126573 -0.177152 0.000000 0.000000 -0.000000 -12.249925 11.058791 -6.645281 2.454114 8.333078 25.351361 0.000000 0.000000 0.000000 -7.281143 -6.494925 -8.472378 3.089026 6.562694 13.532306 
3.308315 0.042603 -0.476966 2.751281 11.542509 -8.770733 0.000000 0.000000 -0.000000 -5.847934 1.160709 0.105058 -0.271363 0.610902 -0.089634 0.000000 0.000000 0.000000 -0.226177 0.118679 -0.014709 0.268844 -1.614214 -0.573085 0.010321 0.416760 -0.526345 -33.500577 -1.681308 -1.468087 -40.995275 11.316976 22.714932 -0.837395 -7.805389 1.331517 -0.617520 0.774963 0.485665 14.716314 10.206370 1.964164 64.970604 4.703540 11.720455 0.628987 28.492076 -0.180297 0.000000 0.000000 -0.000000 -12.336624 11.051738 -6.828299 2.628458 8.402894 25.665852 0.000000 0.000000 0.000000 -7.399473 -6.623925 -8.639442 3.387647 7.389739 13.969047 
3.363228 0.056288 -0.538714 2.695727 11.422497 -8.806340 0.000000 0.000000 -0.000000 -6.124851 1.220549 0.332894 -0.371830 0.681273 -0.144716 0.000000 0.000000 0.000000 -0.317519 0.213326 -0.035404 0.208233 -1.663505 -0.543382 -0.069931 0.481162 -0.560062 -33.179741 -1.669854 -1.450616 -41.475919 10.780380 22.877430 -0.815719 -8.095815 1.315017 -0.760352 0.883422 0.486612 14.868000 9.879113 1.897873 64.822892 4.901720 11.482082 0.628534 28.514287 -0.178206 0.000000 0.000000 -0.000000 -12.340754 11.080205 -6.955558 2.833963 8.545005 25.934948 0.000000 0.000000 0.000000 -7.478255 -6.738040 -8.774509 3.654683 8.125579 14.342068 
3.349760 0.070221 -0.606041 2.664588 11.177239 -8.856389 0.000000 0.000000 -0.000000 -6.308877 1.274541 0.537524 -0.404410 0.732852 -0.202916 0.000000 0.000000 0.000000 -0.349433 0.284644 -0.056205 0.173723 -1.712557 -0.512745 -0.099305 0.524559 -0.583243 -32.802387 -1.750572 -1.396269 -41.930158 10.379907 23.299529 -0.798752 -8.564775 1.307189 -0.820933 0.949500 0.476978 15.048323 9.634121 1.847477 64.640659 5.128705 11.472032 0.624040 28.990787 -0.171332 0.000000 0.000000 -0.000000 -12.276195 11.125739 -7.039543 3.064150 8.748549 26.154378 0.000000 0.000000 0.000000 -7.525867 -6.815814 -8.886631 3.809926 8.598282 14.575921 
3.272808 0.084039 -0.680573 2.650413 10.856674 -8.906919 0.000000 0.000000 -0.000000 -6.416024 1.319938 0.719740 -0.355911 0.761157 -0.267118 0.000000 0.000000 0.000000 -0.303392 0.322157 -0.083945 0.165433 -1.750264 -0.487050 -0.067133 0.545392 -0.603729 -32.392953 -1.911628 -1.324177 -42.338386 10.148527 23.843309 -0.788405 -9.077497 1.308734 -0.793189 0.975568 0.454126 15.203423 9.457219 1.807115 64.496148 5.257723 11.612976 0.616721 29.812470 -0.157435 0.000000 0.000000 -0.000000 -12.160839 11.159675 -7.094734 3.293429 8.990585 26.322018 0.000000 0.000000 0.000000 -7.533676 -6.845424 -8.996566 3.844165 8.775452 14.663986 
3.137007 0.097481 -0.763030 2.640131 10.511143 -8.953656 0.000000 0.000000 -0.000000 -6.405423 1.358027 0.852274 -0.227612 0.762511 -0.348859 0.000000 0.000000 0.000000 -0.184511 0.319826 -0.120472 0.172235 -1.790476 -0.485500 0.029057 0.537201 -0.627663 -31.955858 -2.116954 -1.244886 -42.695815 10.050453 24.406265 -0.778887 -9.646019 1.323995 -0.675082 0.950953 0.412496 15.312979 9.344564 1.784433 64.395062 5.241642 11.798649 0.609255 30.788872 -0.143563 0.000000 0.000000 -0.000000 -12.018327 11.186568 -7.111547 3.512778 9.218378 26.369729 0.000000 0.000000 0.000000 -7.482676 -6.834105 -9.102834 3.845160 8.838755 14.657290 
2.948304 0.110252 -0.853999 2.648199 10.168477 -8.966715 0.000000 0.000000 -0.000000 -6.258712 1.400580 0.927889 -0.031983 0.744008 -0.446503 0.000000 0.000000 0.000000 0.008737 0.284902 -0.156183 0.191048 -1.833243 -0.504454 0.187828 0.499028 -0.649867 -31.463380 -2.276623 -1.172514 -43.066051 10.074896 24.920343 -0.757842 -10.247502 1.363757 -0.465151 0.877327 0.356022 15.381168 9.273756 1.773816 64.293109 5.155921 11.975355 0.601924 31.855646 -0.131083 0.000000 0.000000 -0.000000 -11.862307 11.234908 -7.073783 3.722938 9.432280 26.281884 0.000000 0.000000 0.000000 -7.366448 -6.798416 -9.232908 3.829023 8.860293 14.604531 
